<?xml version="1.0" standalone="no"?>
<!DOCTYPE svg PUBLIC "-//W3C//DTD SVG 20010904//EN"
 "http://www.w3.org/TR/2001/REC-SVG-20010904/DTD/svg10.dtd">
<svg version="1.0" xmlns="http://www.w3.org/2000/svg"
 width="260.000000pt" height="260.000000pt" viewBox="0 0 260.000000 260.000000"
 preserveAspectRatio="xMidYMid meet">
<metadata>
Created by potrace 1.14, written by Peter Selinger 2001-2017
</metadata>
<g transform="translate(0.000000,260.000000) scale(0.100000,-0.100000)"
fill="#000000" stroke="none">
<path d="M1173 1821 c-60 -15 -141 -62 -174 -98 -90 -103 -96 -254 -14 -351
48 -58 96 -79 349 -153 167 -49 209 -70 242 -118 28 -42 32 -109 9 -163 -51
-123 -270 -172 -431 -97 -58 28 -119 90 -139 144 -19 47 -21 48 -100 31 -11
-3 -23 -5 -27 -5 -4 -1 -3 -14 2 -30 37 -130 143 -228 286 -266 58 -15 186
-21 234 -11 14 3 39 9 55 12 49 11 138 60 172 96 53 55 77 121 76 208 0 84
-18 133 -63 178 -59 58 -100 77 -304 137 -186 55 -237 76 -271 117 -25 30 -29
45 -27 107 4 114 169 192 332 156 88 -19 167 -85 197 -164 9 -25 21 -49 25
-52 5 -3 31 -1 59 5 47 10 50 12 44 36 -26 108 -105 202 -210 252 -63 29 -79
32 -180 35 -60 1 -124 -2 -142 -6z"/>
</g>
</svg>
